<svg xmlns="http://www.w3.org/2000/svg" xmlns:xlink="http://www.w3.org/1999/xlink" width="15.531" height="28.469" viewBox="0 0 15.531 28.469">
  <metadata><?xpacket begin="﻿" id="W5M0MpCehiHzreSzNTczkc9d"?>
<x:xmpmeta xmlns:x="adobe:ns:meta/" x:xmptk="Adobe XMP Core 5.6-c142 79.160924, 2017/07/13-01:06:39        ">
   <rdf:RDF xmlns:rdf="http://www.w3.org/1999/02/22-rdf-syntax-ns#">
      <rdf:Description rdf:about=""/>
   </rdf:RDF>
</x:xmpmeta>
                                                                                                    
                                                                                                    
                                                                                                    
                                                                                                    
                                                                                                    
                                                                                                    
                                                                                                    
                                                                                                    
                                                                                                    
                                                                                                    
                                                                                                    
                                                                                                    
                                                                                                    
                                                                                                    
                                                                                                    
                                                                                                    
                                                                                                    
                                                                                                    
                                                                                                    
                                                                                                    
                           
<?xpacket end="w"?></metadata>
<defs>
    <style>
      .cls-1 {
        fill: #ff8210;
        fill-rule: evenodd;
        filter: url(#filter);
      }
    </style>
    <filter id="filter" x="882.469" y="219.531" width="15.531" height="28.469" filterUnits="userSpaceOnUse">
      <feOffset result="offset" dx="0.5" dy="0.866" in="SourceAlpha"/>
      <feGaussianBlur result="blur"/>
      <feFlood result="flood" flood-color="#fff"/>
      <feComposite result="composite" operator="in" in2="blur"/>
      <feBlend result="blend" in="SourceGraphic"/>
      <feGaussianBlur result="blur-2" stdDeviation="1.414" in="SourceAlpha"/>
      <feFlood result="flood-2" flood-opacity="0.24"/>
      <feComposite result="composite-2" operator="out" in2="blur-2"/>
      <feOffset result="offset-2" dx="1" dy="1.732"/>
      <feComposite result="composite-3" operator="in" in2="SourceAlpha"/>
      <feBlend result="blend-2" mode="multiply" in2="blend"/>
    </filter>
  </defs>
  <path id="Shape_10_copy_2" data-name="Shape 10 copy 2" class="cls-1" d="M896.234,234.435l-0.366.006a0.792,0.792,0,0,1-1.036-.427l-1.371-3.3c-0.324-.778-0.6-1.472-1.059-1.364-0.287.068-.9,1.32-0.485,3.029l2.978,13.359a0.735,0.735,0,0,1-.4.961l-0.429.006a1.115,1.115,0,0,1-1.255-.4,67.464,67.464,0,0,0-2.856-9.727c-0.143-.342-0.143-0.287-0.37-0.305-0.226.018-.12-0.037-0.262,0.305a74.65,74.65,0,0,0-2.963,9.727,1.116,1.116,0,0,1-1.255.4l-0.429-.006a0.735,0.735,0,0,1-.4-0.961l2.978-13.359c0.417-1.709-.2-2.961-0.486-3.029-0.456-.108-0.735.586-1.058,1.364l-1.372,3.3a0.792,0.792,0,0,1-1.036.427l-0.366-.006a0.689,0.689,0,0,1-.427-0.939l2.963-7.246c0.341-.833.549-1.71,1.589-1.726,0.82-.012,1.616-0.1,1.494-0.456a1.642,1.642,0,0,0-.363-0.524l-0.015-.014a2.195,2.195,0,0,1-.257-0.244l-0.025-.023-0.012-.01v0a2.245,2.245,0,0,1,1.7-3.717h0a2.244,2.244,0,0,1,1.7,3.717,0,0,0,0,1,0,0l-0.013.01c-0.007.008-.016,0.015-0.024,0.023a2.195,2.195,0,0,1-.257.244l-0.015.014a1.646,1.646,0,0,0-.364.524c-0.121.355,0.675,0.444,1.5,0.456,1.04,0.016,1.248.893,1.589,1.726l2.963,7.246A0.689,0.689,0,0,1,896.234,234.435Z" transform="translate(-882.469 -219.531)"/>
</svg>
