<svg xmlns="http://www.w3.org/2000/svg" xmlns:xlink="http://www.w3.org/1999/xlink" width="15.75" height="28.781" viewBox="0 0 15.75 28.781">
  <metadata><?xpacket begin="﻿" id="W5M0MpCehiHzreSzNTczkc9d"?>
<x:xmpmeta xmlns:x="adobe:ns:meta/" x:xmptk="Adobe XMP Core 5.6-c142 79.160924, 2017/07/13-01:06:39        ">
   <rdf:RDF xmlns:rdf="http://www.w3.org/1999/02/22-rdf-syntax-ns#">
      <rdf:Description rdf:about=""/>
   </rdf:RDF>
</x:xmpmeta>
                                                                                                    
                                                                                                    
                                                                                                    
                                                                                                    
                                                                                                    
                                                                                                    
                                                                                                    
                                                                                                    
                                                                                                    
                                                                                                    
                                                                                                    
                                                                                                    
                                                                                                    
                                                                                                    
                                                                                                    
                                                                                                    
                                                                                                    
                                                                                                    
                                                                                                    
                                                                                                    
                           
<?xpacket end="w"?></metadata>
<defs>
    <style>
      .cls-1 {
        fill: #fff;
        fill-rule: evenodd;
        filter: url(#filter);
      }
    </style>
    <filter id="filter" x="1105" y="218" width="15.75" height="28.781" filterUnits="userSpaceOnUse">
      <feOffset result="offset" dx="-0.669" dy="-0.743" in="SourceAlpha"/>
      <feGaussianBlur result="blur"/>
      <feFlood result="flood" flood-opacity="0.3"/>
      <feComposite result="composite" operator="in" in2="blur"/>
      <feBlend result="blend" in="SourceGraphic"/>
      <feGaussianBlur result="blur-2" stdDeviation="1" in="SourceAlpha"/>
      <feFlood result="flood-2" flood-opacity="0.14"/>
      <feComposite result="composite-2" operator="out" in2="blur-2"/>
      <feOffset result="offset-2" dx="0.5" dy="0.866"/>
      <feComposite result="composite-3" operator="in" in2="SourceAlpha"/>
      <feBlend result="blend-2" mode="multiply" in2="blend"/>
    </filter>
  </defs>
  <path id="Shape_10_copy_4" data-name="Shape 10 copy 4" class="cls-1" d="M1120.23,234.435l-0.36.006a0.8,0.8,0,0,1-1.04-.427s-0.57-1.387-1.37-3.3c-0.32-.778-0.6-1.472-1.06-1.364-0.29.068-.9,1.32-0.48,3.029l2.98,13.359a0.746,0.746,0,0,1-.4.961l-0.43.006a1.127,1.127,0,0,1-1.26-.4,66.813,66.813,0,0,0-2.85-9.727c-0.14-.342-0.14-0.287-0.37-0.305-0.23.018-.12-0.037-0.26,0.305a75.008,75.008,0,0,0-2.97,9.727,1.108,1.108,0,0,1-1.25.4l-0.43-.006a0.746,0.746,0,0,1-.4-0.961l2.98-13.359c0.42-1.709-.2-2.961-0.48-3.029-0.46-.108-0.74.586-1.06,1.364-0.8,1.91-1.37,3.3-1.37,3.3a0.8,0.8,0,0,1-1.04.427l-0.37-.006a0.688,0.688,0,0,1-.42-0.939s1.48-3.621,2.96-7.246c0.34-.833.55-1.71,1.59-1.726,0.82-.012,1.61-0.1,1.49-0.456a1.6,1.6,0,0,0-.36-0.524c-0.01,0-.01-0.01-0.02-0.014a2.4,2.4,0,0,1-.25-0.244l-0.03-.023a0.016,0.016,0,0,0-.01-0.01v0a2.245,2.245,0,0,1,1.7-3.717h0a2.245,2.245,0,0,1,1.7,3.717v0a0.016,0.016,0,0,0-.01.01l-0.03.023a1.778,1.778,0,0,1-.26.244s-0.01.01-.01,0.014a1.6,1.6,0,0,0-.36.524c-0.13.355,0.67,0.444,1.49,0.456,1.04,0.016,1.25.893,1.59,1.726,1.48,3.625,2.96,7.246,2.96,7.246A0.685,0.685,0,0,1,1120.23,234.435Z" transform="translate(-1105 -218)"/>
</svg>
