<svg xmlns="http://www.w3.org/2000/svg" xmlns:xlink="http://www.w3.org/1999/xlink" width="15.56" height="28.437" viewBox="0 0 15.56 28.437">
  <metadata><?xpacket begin="﻿" id="W5M0MpCehiHzreSzNTczkc9d"?>
<x:xmpmeta xmlns:x="adobe:ns:meta/" x:xmptk="Adobe XMP Core 5.6-c142 79.160924, 2017/07/13-01:06:39        ">
   <rdf:RDF xmlns:rdf="http://www.w3.org/1999/02/22-rdf-syntax-ns#">
      <rdf:Description rdf:about=""/>
   </rdf:RDF>
</x:xmpmeta>
                                                                                                    
                                                                                                    
                                                                                                    
                                                                                                    
                                                                                                    
                                                                                                    
                                                                                                    
                                                                                                    
                                                                                                    
                                                                                                    
                                                                                                    
                                                                                                    
                                                                                                    
                                                                                                    
                                                                                                    
                                                                                                    
                                                                                                    
                                                                                                    
                                                                                                    
                                                                                                    
                           
<?xpacket end="w"?></metadata>
<defs>
    <style>
      .cls-1 {
        fill: #ff8210;
        fill-rule: evenodd;
        filter: url(#filter);
      }
    </style>
    <filter id="filter" x="1062.44" y="219.563" width="15.56" height="28.437" filterUnits="userSpaceOnUse">
      <feOffset result="offset" dx="0.5" dy="0.866" in="SourceAlpha"/>
      <feGaussianBlur result="blur"/>
      <feFlood result="flood" flood-color="#fff"/>
      <feComposite result="composite" operator="in" in2="blur"/>
      <feBlend result="blend" in="SourceGraphic"/>
      <feGaussianBlur result="blur-2" stdDeviation="1.414" in="SourceAlpha"/>
      <feFlood result="flood-2" flood-opacity="0.24"/>
      <feComposite result="composite-2" operator="out" in2="blur-2"/>
      <feOffset result="offset-2" dx="1" dy="1.732"/>
      <feComposite result="composite-3" operator="in" in2="SourceAlpha"/>
      <feBlend result="blend-2" mode="multiply" in2="blend"/>
    </filter>
  </defs>
  <path id="Shape_10_copy_4" data-name="Shape 10 copy 4" class="cls-1" d="M1076.21,234.473l-0.37.007a0.785,0.785,0,0,1-1.03-.428s-0.58-1.387-1.38-3.3c-0.32-.778-0.6-1.471-1.05-1.364-0.29.068-.91,1.32-0.49,3.029l2.29,5.827a0.612,0.612,0,0,1-.26.668l-1.29.2a1.367,1.367,0,0,0-1.13.554l-0.16,2.1a0.356,0.356,0,0,0,.02.106l-0.32,4.281a0.593,0.593,0,0,1-.59.588h-1.77a0.584,0.584,0,0,1-.58-0.588l-0.33-4.306a0.224,0.224,0,0,0,.02-0.081l-0.17-2.1a1.353,1.353,0,0,0-1.13-.554l-1.28-.2a0.607,0.607,0,0,1-.27-0.662l2.3-5.833c0.41-1.709-.2-2.961-0.49-3.029-0.45-.107-0.73.586-1.06,1.364-0.79,1.909-1.37,3.3-1.37,3.3a0.788,0.788,0,0,1-1.03.428l-0.37-.007a0.692,0.692,0,0,1-.43-0.939s1.48-3.62,2.97-7.244c0.34-.832.54-1.709,1.58-1.725,0.82-.012,1.62-0.1,1.5-0.456a1.622,1.622,0,0,0-.37-0.523,0.014,0.014,0,0,0-.01-0.015,2.488,2.488,0,0,1-.26-0.244c-0.01-.008-0.01-0.015-0.02-0.023a0.016,0.016,0,0,1-.01-0.01v0a2.194,2.194,0,0,1-.55-1.47,2.241,2.241,0,0,1,2.24-2.246h0.01a2.244,2.244,0,0,1,1.69,3.716v0a0.016,0.016,0,0,1-.01.01,0.041,0.041,0,0,0-.02.023,2.488,2.488,0,0,1-.26.244c-0.01,0-.01.01-0.02,0.015a1.752,1.752,0,0,0-.36.523c-0.12.355,0.67,0.444,1.49,0.456,1.04,0.016,1.25.893,1.59,1.725,1.48,3.624,2.96,7.244,2.96,7.244A0.688,0.688,0,0,1,1076.21,234.473Z" transform="translate(-1062.44 -219.563)"/>
</svg>
