<svg xmlns="http://www.w3.org/2000/svg" xmlns:xlink="http://www.w3.org/1999/xlink" width="15.719" height="28.75" viewBox="0 0 15.719 28.75">
  <metadata><?xpacket begin="﻿" id="W5M0MpCehiHzreSzNTczkc9d"?>
<x:xmpmeta xmlns:x="adobe:ns:meta/" x:xmptk="Adobe XMP Core 5.6-c142 79.160924, 2017/07/13-01:06:39        ">
   <rdf:RDF xmlns:rdf="http://www.w3.org/1999/02/22-rdf-syntax-ns#">
      <rdf:Description rdf:about=""/>
   </rdf:RDF>
</x:xmpmeta>
                                                                                                    
                                                                                                    
                                                                                                    
                                                                                                    
                                                                                                    
                                                                                                    
                                                                                                    
                                                                                                    
                                                                                                    
                                                                                                    
                                                                                                    
                                                                                                    
                                                                                                    
                                                                                                    
                                                                                                    
                                                                                                    
                                                                                                    
                                                                                                    
                                                                                                    
                                                                                                    
                           
<?xpacket end="w"?></metadata>
<defs>
    <style>
      .cls-1 {
        fill: #fff;
        fill-rule: evenodd;
        filter: url(#filter);
      }
    </style>
    <filter id="filter" x="839" y="218" width="15.719" height="28.75" filterUnits="userSpaceOnUse">
      <feOffset result="offset" dx="-0.669" dy="-0.743" in="SourceAlpha"/>
      <feGaussianBlur result="blur"/>
      <feFlood result="flood" flood-opacity="0.3"/>
      <feComposite result="composite" operator="in" in2="blur"/>
      <feBlend result="blend" in="SourceGraphic"/>
      <feGaussianBlur result="blur-2" stdDeviation="1" in="SourceAlpha"/>
      <feFlood result="flood-2" flood-opacity="0.14"/>
      <feComposite result="composite-2" operator="out" in2="blur-2"/>
      <feOffset result="offset-2" dx="0.5" dy="0.866"/>
      <feComposite result="composite-3" operator="in" in2="SourceAlpha"/>
      <feBlend result="blend-2" mode="multiply" in2="blend"/>
    </filter>
  </defs>
  <path id="Shape_10_copy_3" data-name="Shape 10 copy 3" class="cls-1" d="M854.207,234.473l-0.366.007a0.793,0.793,0,0,1-1.036-.428s-0.576-1.387-1.37-3.3c-0.324-.778-0.6-1.471-1.059-1.364-0.288.068-.9,1.32-0.486,3.029l2.293,5.827a0.607,0.607,0,0,1-.262.668l-1.289.2a1.352,1.352,0,0,0-1.127.554l-0.167,2.1a0.282,0.282,0,0,0,.02.106l-0.321,4.281a0.588,0.588,0,0,1-.588.588h-1.765a0.588,0.588,0,0,1-.588-0.588l-0.323-4.306a0.306,0.306,0,0,0,.015-0.081l-0.166-2.1a1.354,1.354,0,0,0-1.128-.554l-1.289-.2a0.6,0.6,0,0,1-.262-0.662l2.294-5.833c0.417-1.709-.2-2.961-0.486-3.029-0.456-.107-0.734.586-1.058,1.364l-1.371,3.3a0.793,0.793,0,0,1-1.036.428l-0.366-.007a0.689,0.689,0,0,1-.427-0.939l2.963-7.244c0.34-.832.548-1.709,1.588-1.725,0.82-.012,1.615-0.1,1.494-0.456a1.643,1.643,0,0,0-.363-0.523c-0.006-.005-0.01-0.011-0.015-0.015a2.2,2.2,0,0,1-.258-0.244c-0.007-.008-0.016-0.015-0.024-0.023l-0.013-.01a0,0,0,0,0,0,0,2.244,2.244,0,0,1,1.7-3.716h0a2.243,2.243,0,0,1,1.695,3.716,0,0,0,0,1,0,0l-0.012.01-0.025.023a2.195,2.195,0,0,1-.257.244s-0.01.01-.015,0.015a1.647,1.647,0,0,0-.364.523c-0.121.355,0.675,0.444,1.494,0.456,1.04,0.016,1.249.893,1.589,1.725l2.963,7.244A0.69,0.69,0,0,1,854.207,234.473Z" transform="translate(-839 -218)"/>
</svg>
